PathFileType	4	(X/Y/Z)	C:/Users/opensim2020/Desktop/walking_exp_matlab/subject02_walking04_straight_03.trc																																																																																																																												
DataRate	CameraRate	NumFrames	NumMarkers	Units	OrigDataRate	OrigDataStartFrame	OrigNumFrames																																																																																																																								
100	100	6	42	mm	100	2289	222																																																																																																																								
Frame#	Time	LFHD			RFHD			LBHD			RBHD			C7			T10			CLAV			STRN			RBAK			LSHO			LUPA			LELB			LFRM			LWRA			LWRB			LFIN			RSHO			RUPA			RELB			RFRM			RWRA			RWRB			RFIN			LASI			RASI			LPSI			RPSI			LTHI			LKNE			LTIB			LANK			LHEE			LTOE			RTHI			RKNE			RTIB			RANK			RHEE			RTOE			*39			*40			*41		
		X1	Y1	Z1	X2	Y2	Z2	X3	Y3	Z3	X4	Y4	Z4	X5	Y5	Z5	X6	Y6	Z6	X7	Y7	Z7	X8	Y8	Z8	X9	Y9	Z9	X10	Y10	Z10	X11	Y11	Z11	X12	Y12	Z12	X13	Y13	Z13	X14	Y14	Z14	X15	Y15	Z15	X16	Y16	Z16	X17	Y17	Z17	X18	Y18	Z18	X19	Y19	Z19	X20	Y20	Z20	X21	Y21	Z21	X22	Y22	Z22	X23	Y23	Z23	X24	Y24	Z24	X25	Y25	Z25	X26	Y26	Z26	X27	Y27	Z27	X28	Y28	Z28	X29	Y29	Z29	X30	Y30	Z30	X31	Y31	Z31	X32	Y32	Z32	X33	Y33	Z33	X34	Y34	Z34	X35	Y35	Z35	X36	Y36	Z36	X37	Y37	Z37	X38	Y38	Z38	X39	Y39	Z39	X40	Y40	Z40	X41	Y41	Z41	X42	Y42	Z42
																																																																																																																															
84	0.83	-211.58626	1732.3147	-1048.17651	-230.74173	1707.32483	-907.50269	-334.76761	1650.08813	-1078.31812	-365.603	1622.7948	-940.94513	-397.83722	1510.20764	-1006.79639	-446.60257	1231.72217	-994.45734	-256.79181	1442.57556	-1017.42169	-201.68536	1273.66516	-1011.92267	-452.44888	1332.58289	-943.64771	-322.37653	1488.31665	-1186.55701	-318.0343	1291.15259	-1275.56018	-304.28308	1150.96448	-1295.92163	-261.20242	1025.12549	-1312.6947	-170.1351	922.54181	-1288.33179	-217.6763	910.50757	-1317.52087	-179.74489	857.06543	-1326.18823	-321.05624	1473.34644	-819.99084	-361.00491	1287.05957	-736.20038	-354.89639	1140.93042	-718.8028	-334.73236	1022.92267	-694.74121	-291.79706	893.70947	-708.23053	-341.37708	893.38617	-678.20935	-308.23633	829.19635	-672.66443	-217.43283	968.48596	-1140.25879	-182.82393	975.48169	-890.83447	-417.36801	1011.91846	-1041.16626	-407.42084	1016.55304	-924.54901	-313.34973	656.26868	-1200.83411	-354.79657	473.2019	-1189.85498	-507.43134	364.37454	-1177.01331	-646.03046	195.29041	-1142.8468	-672.25592	199.83878	-1082.68726	-593.4939	47.26847	-1167.22192	-190.93843	674.64642	-814.86517	-154.33182	469.09869	-860.54791	-179.46098	281.30054	-851.73999	-190.52063	89.78104	-886.38611	-227.62354	36.87326	-940.83447	-37.0051	38.52801	-881.95483	-329.26724	1786.90393	-970.75623	NaN	NaN	NaN	NaN	NaN	NaN
85	0.84	-202.37199	1734.10156	-1046.66919	-221.3611	1708.92651	-905.992	-325.25955	1651.44165	-1076.87573	-355.37704	1623.98962	-939.11255	-388.01053	1511.67871	-1004.98132	-436.97318	1233.28992	-992.01874	-247.12927	1444.01233	-1016.22998	-192.0712	1275.01379	-1010.73401	-443.18301	1334.43262	-941.16016	-313.51767	1489.58691	-1185.12695	-311.32483	1292.04871	-1273.49146	-299.64819	1151.48706	-1293.05334	-259.19199	1024.99695	-1310.5094	-169.98294	920.534	-1287.18335	-217.87869	909.39972	-1315.71643	-181.42374	854.94977	-1324.56189	-310.24802	1475.05518	-818.45599	-348.81058	1288.38245	-734.0368	-341.63181	1142.42212	-716.49048	-320.31323	1024.57007	-692.41058	-276.94809	895.42828	-706.03503	-325.71194	895.05487	-675.77948	-291.84351	831.23364	-670.15845	-208.54851	969.65491	-1138.83191	-173.36105	976.33472	-889.4502	-408.24765	1013.10126	-1038.89966	-398.05191	1018.08142	-922.36084	-297.69376	657.01501	-1200.21985	-334.25269	473.44354	-1189.64038	-487.55652	367.46356	-1175.79175	-627.80182	200.70358	-1138.53662	-653.35272	203.8271	-1077.60034	-576.06549	53.5359	-1168.35938	-184.16991	675.01385	-814.51196	-150.13197	469.16437	-859.83246	-176.49451	281.53061	-850.54541	-190.37401	89.96368	-886.35205	-227.67284	36.96619	-940.82159	-36.90459	38.44292	-881.95789	-320.13815	1788.11694	-969.2608	NaN	NaN	NaN	NaN	NaN	NaN
86	0.85	-193.26137	1735.92908	-1045.40576	-211.94183	1710.52063	-904.77997	-315.84256	1652.53613	-1075.4491	-346.16235	1624.92822	-937.80487	-378.19269	1513.2854	-1003.11786	-427.57532	1234.90808	-989.78119	-237.48383	1445.43835	-1015.15833	-182.61514	1276.23657	-1009.79254	-432.27951	1335.93787	-938.48236	-304.79745	1490.64197	-1183.82166	-304.62131	1293.08765	-1272.09607	-294.97433	1152.14417	-1290.55249	-257.22345	1024.91052	-1308.44104	-169.93039	918.26886	-1286.15088	-218.29445	908.62927	-1314.2207	-183.25864	853.02136	-1322.94641	-299.06287	1476.47864	-817.08136	-335.89551	1289.75684	-731.82281	-328.09039	1143.8866	-714.06305	-305.33923	1026.0177	-690.17322	-260.75449	897.69891	-703.9162	-309.81845	896.69611	-673.38159	-275.1366	833.40533	-667.7168	-200.07964	971.00543	-1138.00842	-164.08235	977.03674	-888.29456	-399.2796	1014.2691	-1036.55945	-388.77878	1019.57281	-920.23322	-282.5845	658.43835	-1199.60913	-313.77875	474.47537	-1189.01807	-467.54178	371.00201	-1173.36035	-608.58118	205.09546	-1134.2594	-633.4295	206.43098	-1072.60742	-556.56262	59.14257	-1169.36719	-177.77222	675.427	-813.85461	-146.00424	469.04895	-859.35742	-173.90379	281.63229	-849.72253	-190.08485	90.10626	-886.26135	-227.79776	37.01421	-940.78149	-36.86942	38.34391	-881.8949	-311.46826	1789.61194	-968.21899	NaN	NaN	NaN	NaN	NaN	NaN
87	0.86	-184.18196	1737.73206	-1044.30029	-202.63872	1712.21863	-903.60815	-306.38266	1653.9856	-1074.35437	-336.42419	1626.1969	-936.77887	-368.45749	1514.91479	-1001.4043	-418.28445	1236.64856	-987.63208	-227.94775	1446.80164	-1014.22314	-173.37917	1277.43713	-1008.92957	-422.88766	1338.14014	-936.02319	-296.15082	1491.729	-1182.60034	-298.20712	1293.92444	-1270.18164	-290.4144	1152.90698	-1288.33838	-255.36861	1025.21533	-1307.15918	-169.7411	916.65668	-1284.94006	-218.83162	907.60901	-1312.41895	-185.13889	851.23218	-1321.30505	-288.26492	1478.14636	-815.75568	-323.42343	1291.49695	-729.86365	-314.40182	1145.49817	-711.7052	-290.76721	1027.85974	-687.86603	-245.84335	899.50385	-702.14612	-293.61557	898.38019	-671.05054	-258.03616	835.63538	-665.31732	-191.90166	972.54462	-1137.67188	-154.81035	977.65002	-887.4859	-390.44156	1015.47998	-1034.18274	-379.49625	1020.90979	-918.07977	-267.67178	660.01355	-1199.18335	-293.43118	476.29041	-1188.28003	-447.03043	374.10855	-1170.34448	-588.47675	208.33388	-1130.53931	-612.49512	208.15417	-1068.53577	-535.13684	63.93906	-1170.35437	-171.51163	675.80878	-812.97137	-142.62901	468.86911	-858.56726	-171.57237	281.55643	-849.11731	-189.79735	90.15687	-886.11572	-227.89217	36.99554	-940.70276	-36.87761	38.2658	-881.75104	-302.48486	1790.87268	-966.87476	NaN	NaN	NaN	NaN	NaN	NaN
88	0.87	-175.08395	1739.55713	-1043.43274	-193.25803	1713.93188	-902.67957	-297.01447	1655.21045	-1073.1604	-326.77762	1627.30005	-935.62323	-358.74033	1516.55249	-999.70465	-409.24191	1238.47107	-985.49402	-218.45628	1448.15381	-1013.3446	-164.21124	1278.59924	-1008.31995	-412.86777	1340.07239	-933.46478	-287.5217	1492.98315	-1181.6073	-291.75458	1294.97742	-1268.96094	-285.71094	1153.7063	-1286.09619	-253.45161	1025.31165	-1304.90991	-169.83606	915.00659	-1283.8042	-219.24023	907.18176	-1310.89417	-187.11842	849.7226	-1319.64111	-276.53589	1479.63867	-814.49158	-310.55539	1292.93225	-727.81836	-300.72369	1146.94055	-709.40356	-275.66342	1029.75378	-685.67969	-230.58131	901.57898	-700.61212	-277.41754	900.1651	-668.77197	-241.05753	837.94659	-663.03845	-183.98448	974.25098	-1137.72327	-145.81415	978.2085	-886.72272	-381.80756	1016.80774	-1031.67383	-370.7529	1022.52246	-915.84058	-252.9612	661.78308	-1198.60767	-273.22726	478.55457	-1187.47681	-426.11234	376.43195	-1167.34729	-567.18286	210.181	-1127.29602	-590.93555	208.80762	-1064.79382	-512.56708	67.86774	-1170.79822	-165.2063	675.98541	-812.1546	-139.489	468.56177	-857.90637	-169.46056	281.34708	-848.53552	-189.61092	90.18357	-886.01465	-228.00206	37.06043	-940.67084	-36.89143	38.18749	-881.56366	-293.78815	1792.03748	-965.73035	NaN	NaN	NaN	NaN	NaN	NaN
89	0.88	-166.15428	1741.33569	-1042.64551	-183.91811	1715.63391	-901.9057	-287.68613	1656.48315	-1072.3009	-317.17059	1628.427	-934.50067	-349.09113	1518.14697	-998.17352	-400.13763	1240.23145	-983.56	-208.97386	1449.49316	-1012.65625	-155.19	1279.67981	-1007.7829	-402.95102	1341.93713	-930.92279	-279.0889	1494.03235	-1180.55933	-285.68588	1295.61694	-1266.71033	-281.03702	1154.70667	-1284.03687	-251.55383	1025.81946	-1303.12024	-169.92825	913.43311	-1282.76233	-219.73628	906.96643	-1309.37891	-189.10451	848.49103	-1317.99976	-265.49228	1481.40051	-813.4718	-298.01614	1294.3667	-726.19	-286.57394	1148.4939	-707.11487	-260.5246	1031.58203	-683.61584	-213.75012	904.12543	-698.43768	-260.94437	902.02966	-666.67902	-224.08218	840.48346	-660.99231	-176.28838	976.01794	-1137.96448	-137.00102	978.8031	-886.03265	-373.32886	1018.21893	-1029.22473	-361.89777	1023.83905	-913.85431	-238.31911	663.74811	-1198.03015	-253.4017	480.92007	-1186.73352	-405.2851	378.27966	-1164.73804	-545.29224	210.96083	-1124.22888	-568.80865	208.0708	-1061.32581	-488.50403	70.84875	-1170.51868	-159.34372	676.31494	-811.10303	-136.46771	468.14151	-857.73877	-167.70287	281.08636	-848.25476	-189.48819	90.16936	-885.98285	-228.03346	37.05281	-940.66815	-36.88716	38.09651	-881.41974	-284.68875	1793.24792	-964.70337	NaN	NaN	NaN	NaN	NaN	NaN
